<svg width="17px" height="20px" viewBox="0 0 17 20" version="1.1" xmlns="http://www.w3.org/2000/svg" xmlns:xlink="http://www.w3.org/1999/xlink">
    <g id="Symbols" stroke="none" stroke-width="1" fill="none" fill-rule="evenodd" fill-opacity="0.6">
        <g id="main-menu" transform="translate(-21.000000, -200.000000)" fill="#FFFFFF">
            <g id="Group-4" transform="translate(0.000000, 8.000000)">
                <g id="Group-3-Copy-2" transform="translate(0.000000, 172.000000)">
                    <g id="icon-/-content" transform="translate(18.000000, 18.000000)">
                        <g id="Group-12-Copy-7" transform="translate(3.000000, 2.000000)">
                            <path d="M12.1674378,0.999085732 C12.1674378,0.447305918 11.7199621,0 11.1717253,0 L0.995712505,0 C0.445795673,0 0,0.449266351 0,0.997832367 L0,14.5748731 C0,15.1259607 0.44941514,15.5727055 1.00984568,15.5727055 L2.79717864,15.5727055 L2.79717864,3.49636222 C2.79717864,2.94146552 3.24912571,2.49163288 3.79996051,2.49163288 L12.1674378,2.49163288 L12.1674378,0.999085732 Z" id="Combined-Shape"></path>
                            <polygon id="Path" points="13.3720893 3.72310447 13.3720893 6.78017683 16.4140509 6.78017683"></polygon>
                            <path d="M12.5717021,3.73744931 L4.9181189,3.73744931 C4.54738289,3.73744931 4.24661309,4.01725504 4.24661309,4.3624129 L4.24661309,19.3080994 C4.24661309,19.6519578 4.54725648,19.933063 4.9181189,19.933063 L15.7425451,19.933063 C16.1132811,19.933063 16.4140509,19.6532573 16.4140509,19.3080994 L16.4140509,8.01785136 L12.2506918,8.01785136 L12.2506918,3.73744931 L12.5717021,3.73744931 Z M12.9548894,11.4273767 C12.9548894,9.8053238 11.7723733,8.67918785 10.2200448,8.67918785 C8.66645434,8.67918785 7.58364064,9.8053238 7.58364064,11.3594918 L7.58364064,12.672764 L6.50939089,12.672764 L6.50939089,17.6882755 L14.0291391,17.6882755 L14.0291391,12.672764 L12.9548894,12.672764 L12.9548894,11.4273767 Z M10.2707138,9.8053238 C11.1579696,9.8053238 11.8806396,10.5373357 11.8806396,11.4378218 L11.8806396,12.6206637 L8.65789039,12.6206637 L8.65789039,11.4378218 C8.65789039,10.5373357 9.38229905,9.8053238 10.2707138,9.8053238 Z" id="Combined-Shape"></path>
                        </g>
                    </g>
                </g>
            </g>
        </g>
    </g>
</svg>