<?xml version="1.0" encoding="UTF-8"?>
<svg width="129px" height="30px" viewBox="0 0 129 30" version="1.1" xmlns="http://www.w3.org/2000/svg" xmlns:xlink="http://www.w3.org/1999/xlink">
    <!-- Generator: Sketch 43.2 (39069) - http://www.bohemiancoding.com/sketch -->
    <title>Group 5</title>
    <desc>Created with Sketch.</desc>
    <defs></defs>
    <g id="Symbols" stroke="none" stroke-width="1" fill="none" fill-rule="evenodd">
        <g id="main-menu" transform="translate(-11.000000, -15.000000)">
            <g id="Group-4" transform="translate(0.000000, 8.000000)">
                <g id="Group-3-Copy" transform="translate(0.000000, 7.000000)">
                    <g id="Group-5" transform="translate(11.000000, 0.000000)">
                        <g id="logo-/-iManage_horizontal_White">
                            <g id="iManage_horizontal_White">
                                <g id="Group-2">
                                    <path d="M37.6122013,14.607 C31.8398742,28.1345 -3.77044025,31.32775 4.4036478,11.358375 C7.27320755,4.348 13.4485535,-0.46875 21.1801258,0.703375 C26.6641509,1.53475 39.8518239,8.81625 37.6122013,14.607" id="Fill-1" fill="#6778F2"></path>
                                    <path d="M9.0572327,0.11875 C7.18113208,0.119 5.42,0.382 3.86691824,0.955125 C-2.71459119,3.640875 0.623396226,18.304 4.24616352,23.452 C7.52930818,28.117125 12.552956,29.97475 17.8122013,29.97475 C21.6337107,29.97475 25.5798742,28.993625 29.0719497,27.39625 C35.2384906,24.5755 37.0793711,20.817625 36.2168553,16.994375 C32.198239,22.335 23.3332075,25.544 15.7993711,25.544 C7.18666667,25.544 0.313081761,21.351625 4.4036478,11.358375 C6.51144654,6.20925 10.4027673,2.243625 15.3840252,0.96525 C13.2134591,0.420875 11.0671698,0.118625 9.0572327,0.11875" id="Fill-2" fill="#92DEFF"></path>
                                    <path d="M15.3840252,0.96525 C10.4027673,2.243625 6.51144654,6.20925 4.4036478,11.358375 C0.313081761,21.351625 7.18666667,25.544 15.7993711,25.544 C23.3332075,25.544 32.198239,22.335 36.2168553,16.994375 C34.6979874,10.2605 24.7987421,3.3265 15.3840252,0.96525" id="Fill-3" fill="#3B69F2"></path>
                                    <path d="M23.0791195,9.842375 C21.8971069,9.842375 20.8319497,10.34775 20.0900629,11.15225 C19.3481761,10.34775 18.2828931,9.842375 17.1010063,9.842375 C14.8649057,9.842375 13.0457862,11.650125 13.0457862,13.872125 L13.0457862,18.8135 L15.1778616,18.8135 L15.1778616,13.872125 C15.1778616,12.818375 16.0406289,11.961125 17.1010063,11.961125 C18.1612579,11.961125 19.0240252,12.818375 19.0240252,13.872125 L19.0240252,18.8135 L21.1561006,18.8135 L21.1561006,13.872125 C21.1561006,12.818375 22.0187421,11.961125 23.0791195,11.961125 C24.1394969,11.961125 25.0020126,12.818375 25.0020126,13.872125 L25.0020126,18.8135 L27.1340881,18.8135 L27.1340881,13.872125 C27.1340881,11.650125 25.3149686,9.842375 23.0791195,9.842375" id="Fill-4" fill="#FFFFFF"></path>
                                    <path d="M12.0841509,6.824125 C12.9397484,6.824125 13.6241509,7.504375 13.6241509,8.354625 C13.6241509,9.186 12.9397484,9.86625 12.0841509,9.86625 C11.2474214,9.86625 10.5630189,9.186 10.5630189,8.354625 C10.5630189,7.504375 11.2474214,6.824125 12.0841509,6.824125" id="Fill-5" fill="#FFFFFF"></path>
                                </g>
                                <g id="Group-3" transform="translate(49.811321, 6.818182)" fill="#FFFDFD">
                                    <polygon id="Fill-6" points="0.355345912 4.56594318 2.78704403 4.56594318 2.78704403 14.2694432 0.355345912 14.2694432"></polygon>
                                    <polyline id="Fill-7" points="20.0772327 14.2694432 17.5115723 14.2694432 17.5115723 5.92531818 13.6075472 14.2694432 11.6662893 14.2694432 7.76226415 5.92531818 7.76226415 14.2694432 5.19660377 14.2694432 5.19660377 0.00594318182 7.65069182 0.00594318182 12.6480503 10.3008182 17.6232704 0.00594318182 20.0772327 0.00594318182 20.0772327 14.2694432"></polyline>
                                    <path d="M32.1918239,3.93806818 L32.1918239,14.2694432 L29.7601258,14.2694432 L29.7601258,12.8726932 C29.1128302,13.9146932 27.7519497,14.5353182 26.5474214,14.5353182 C23.3792453,14.5353182 21.2153459,12.0301932 21.2153459,9.10356818 C21.2153459,6.17719318 23.3792453,3.67194318 26.5474214,3.67194318 C27.7519497,3.67194318 29.1128302,4.29269318 29.7601258,5.33469318 L29.7601258,3.93806818 L32.1918239,3.93806818 L32.1918239,3.93806818 Z M29.7601258,9.10356818 C29.7601258,7.32994318 28.5553459,5.82244318 26.6811321,5.82244318 C24.8518239,5.82244318 23.647044,7.32994318 23.647044,9.10356818 C23.647044,10.8771932 24.8518239,12.3849432 26.6811321,12.3849432 C28.5553459,12.3849432 29.7601258,10.8771932 29.7601258,9.10356818 L29.7601258,9.10356818 Z" id="Fill-8"></path>
                                    <path d="M33.7719497,3.93806818 L36.2037736,3.93806818 L36.2037736,5.37894318 C36.8506918,4.27056818 38.0554717,3.67194318 39.5945912,3.67194318 C41.089434,3.67194318 42.1381132,4.20394318 42.7181132,5.06869318 C43.231195,5.84469318 43.3872956,6.70931818 43.3872956,8.12819318 L43.3872956,14.2694432 L40.9555975,14.2694432 L40.9555975,8.92631818 C40.9555975,7.15256818 40.4425157,5.80019318 38.7023899,5.80019318 C37.0067925,5.80019318 36.2037736,7.15256818 36.2037736,8.92631818 L36.2037736,14.2694432 L33.7719497,14.2694432 L33.7719497,3.93806818" id="Fill-9"></path>
                                    <path d="M55.5555975,3.93806818 L55.5555975,14.2694432 L53.1238994,14.2694432 L53.1238994,12.8726932 C52.4766038,13.9146932 51.1157233,14.5353182 49.9113208,14.5353182 C46.7431447,14.5353182 44.5791195,12.0301932 44.5791195,9.10356818 C44.5791195,6.17719318 46.7431447,3.67194318 49.9113208,3.67194318 C51.1157233,3.67194318 52.4766038,4.29269318 53.1238994,5.33469318 L53.1238994,3.93806818 L55.5555975,3.93806818 L55.5555975,3.93806818 Z M53.1238994,9.10356818 C53.1238994,7.32994318 51.9191195,5.82244318 50.0449057,5.82244318 C48.2155975,5.82244318 47.0109434,7.32994318 47.0109434,9.10356818 C47.0109434,10.8771932 48.2155975,12.3849432 50.0449057,12.3849432 C51.9191195,12.3849432 53.1238994,10.8771932 53.1238994,9.10356818 L53.1238994,9.10356818 Z" id="Fill-10"></path>
                                    <path d="M67.6703145,14.7791932 C67.6703145,18.2379432 65.572956,19.7010682 62.1150943,19.7010682 C58.6568553,19.7010682 57.0060377,17.5949432 56.8720755,15.4444432 L59.3264151,15.4444432 C59.4602516,16.5528182 60.3524528,17.5506932 62.1150943,17.5506932 C64.0559748,17.5506932 65.2384906,16.7301932 65.2384906,14.7791932 L65.2384906,12.8726932 C64.5915723,13.9146932 63.2303145,14.5353182 62.0259119,14.5353182 C58.8577358,14.5353182 56.6937107,12.0301932 56.6937107,9.10356818 C56.6937107,6.17719318 58.8577358,3.67194318 62.0259119,3.67194318 C63.2303145,3.67194318 64.5915723,4.29269318 65.2384906,5.33469318 L65.2384906,3.93806818 L67.6703145,3.93806818 L67.6703145,14.7791932 L67.6703145,14.7791932 Z M59.1255346,9.10356818 C59.1255346,10.8771932 60.3303145,12.3849432 62.1594969,12.3849432 C64.0337107,12.3849432 65.2384906,10.8771932 65.2384906,9.10356818 C65.2384906,7.32994318 64.0337107,5.82244318 62.1594969,5.82244318 C60.3303145,5.82244318 59.1255346,7.32994318 59.1255346,9.10356818 L59.1255346,9.10356818 Z" id="Fill-11"></path>
                                    <path d="M71.2621384,9.83531818 C71.2846541,11.3206932 72.0207547,12.5179432 73.9837736,12.5179432 C75.3672956,12.5179432 75.8802516,11.8970682 76.1925786,11.1655682 L78.6467925,11.1655682 C78.3120755,12.9391932 76.6386164,14.5353182 73.9837736,14.5353182 C70.4812579,14.5353182 68.7855346,11.9193182 68.7855346,9.10356818 C68.7855346,5.99981818 70.6373585,3.67194318 73.9168553,3.67194318 C76.616478,3.67194318 78.7359748,5.68944318 78.7359748,8.32781818 C78.7359748,8.68256818 78.7359748,9.17019318 78.6242767,9.83531818 L71.2621384,9.83531818 L71.2621384,9.83531818 Z M71.2846541,8.03944318 L76.371195,8.03944318 C76.371195,6.59844318 75.3225157,5.68944318 73.8499371,5.68944318 C72.4221384,5.68944318 71.2846541,6.50969318 71.2846541,8.03944318 L71.2846541,8.03944318 Z" id="Fill-12"></path>
                                    <path d="M1.56176101,0.00594318182 C2.41849057,0.00594318182 3.10389937,0.687068182 3.10389937,1.53856818 C3.10389937,2.37106818 2.41849057,3.05219318 1.56176101,3.05219318 C0.724025157,3.05219318 0.0386163522,2.37106818 0.0386163522,1.53856818 C0.0386163522,0.687068182 0.724025157,0.00594318182 1.56176101,0.00594318182" id="Fill-13"></path>
                                </g>
                            </g>
                        </g>
                    </g>
                </g>
            </g>
        </g>
    </g>
</svg>