<svg width="22px" height="18px" viewBox="0 0 22 18" version="1.1" xmlns="http://www.w3.org/2000/svg" xmlns:xlink="http://www.w3.org/1999/xlink">
    <defs>
        <path d="M11,0 C8.31,0 6.41,1.22 6.41,1.22 L5,6 L17,6 L15.59,1.22 C15.59,1.22 13.69,0 11,0 L11,0 Z M11,8 C8.27,8 4.39,8.54 4.13,8.59 C3.09,8.87 2.25,9.15 1.59,9.41 C0.58,9.75 0,10 0,10 L22,10 C22,10 21.42,9.75 20.41,9.41 C19.75,9.15 18.89,8.87 17.84,8.59 C17.84,8.59 13.82,8 11,8 L11,8 Z M6.5,11 C4.56700338,11 3,12.5670034 3,14.5 C3,16.4329966 4.56700338,18 6.5,18 C8.43299662,18 10,16.4329966 10,14.5 C10,14.34 10,14.18 9.97,14.03 C10.29,13.96 10.63,13.9 11,13.91 C11.37,13.91 11.71,13.96 12.03,14.03 C12,14.18 12,14.34 12,14.5 C12,16.4329966 13.5670034,18 15.5,18 C17.4329966,18 19,16.4329966 19,14.5 C19,12.5670034 17.4329966,11 15.5,11 C14.03,11 12.77,11.9 12.25,13.19 C11.93,13.09 11.55,13 11,13 C10.45,13 10.07,13.09 9.75,13.19 C9.23,11.9 7.97,11 6.5,11 L6.5,11 Z M6.5,12 C7.88071187,12 9,13.1192881 9,14.5 C9,15.8807119 7.88071187,17 6.5,17 C5.11928813,17 4,15.8807119 4,14.5 C4,13.1192881 5.11928813,12 6.5,12 L6.5,12 Z M15.5,12 C16.8807119,12 18,13.1192881 18,14.5 C18,15.8807119 16.8807119,17 15.5,17 C14.1192881,17 13,15.8807119 13,14.5 C13,13.1192881 14.1192881,12 15.5,12 Z" id="path-2"></path>
    </defs>
    <g id="Symbols" stroke="none" stroke-width="1" fill="none" fill-rule="evenodd">
        <g id="main-menu" transform="translate(-19.000000, -537.000000)">
            <g id="Group-4" transform="translate(0.000000, 8.000000)">
                <g id="Group-3-Copy-8" transform="translate(0.000000, 508.000000)">
                    <g id="icon-/-threat_manager" transform="translate(18.000000, 18.000000)">
                        <g id="incognito-(1)" transform="translate(1.000000, 3.000000)">
                            <mask id="mask-2" fill="white">
                                <use xlink:href="#path-2"></use>
                            </mask>
                            <g id="Shape" fill-rule="nonzero"></g>
                            <g id="color-/-white_60" mask="url(#mask-2)" fill="#FFFFFF" fill-opacity="0.6">
                                <g transform="translate(-1.000000, -3.000000)" id="Rectangle-6-Copy-4">
                                    <rect x="0" y="0" width="24" height="24"></rect>
                                </g>
                            </g>
                        </g>
                    </g>
                </g>
            </g>
        </g>
    </g>
</svg>