<svg width="20px" height="18px" viewBox="0 0 20 18" version="1.1" xmlns="http://www.w3.org/2000/svg" xmlns:xlink="http://www.w3.org/1999/xlink">
    <defs>
        <path d="M0.638297872,3.48834043 C0.286382979,3.48834043 0,3.20204255 0,2.85004255 L0,0.644340426 C0,0.292340426 0.286382979,0.00604255319 0.638297872,0.00604255319 L8.71523404,0.00604255319 C9.06714894,0.00604255319 9.35353191,0.292340426 9.35353191,0.644340426 L9.35353191,2.85004255 C9.35353191,3.20204255 9.06714894,3.48834043 8.71523404,3.48834043 L0.638297872,3.48834043 Z M19.3454468,3.48834043 C19.6973617,3.48834043 19.9837447,3.20204255 19.9837447,2.85004255 L19.9837447,0.644340426 C19.9837447,0.292340426 19.6973617,0.00604255319 19.3454468,0.00604255319 L11.2685106,0.00604255319 C10.9165957,0.00604255319 10.6302128,0.292340426 10.6302128,0.644340426 L10.6302128,2.85004255 C10.6302128,3.20204255 10.9165957,3.48834043 11.2685106,3.48834043 L19.3454468,3.48834043 Z M14.0302979,8.24714894 C14.3822128,8.24714894 14.6685957,7.96076596 14.6685957,7.60885106 L14.6685957,5.40323404 C14.6685957,5.05123404 14.3822128,4.76493617 14.0302979,4.76493617 L5.9533617,4.76493617 C5.60144681,4.76493617 5.31506383,5.05123404 5.31506383,5.40323404 L5.31506383,7.60893617 C5.31506383,7.96085106 5.60144681,8.24723404 5.9533617,8.24723404 L14.0302979,8.24723404 L14.0302979,8.24714894 Z M3.40017021,8.24714894 C3.75217021,8.24714894 4.03846809,7.96085106 4.03846809,7.60885106 L4.03846809,5.40323404 C4.03846809,5.05123404 3.75217021,4.76493617 3.40017021,4.76493617 L0.68493617,4.76493617 C0.33293617,4.76493617 0.0466382979,5.05123404 0.0466382979,5.40323404 L0.0466382979,7.60893617 C0.0466382979,7.96093617 0.33293617,8.24723404 0.68493617,8.24723404 L3.40017021,8.24723404 L3.40017021,8.24714894 Z M19.2988085,8.24714894 C19.6508085,8.24714894 19.9371064,7.96085106 19.9371064,7.60885106 L19.9371064,5.40323404 C19.9371064,5.05123404 19.6508085,4.76493617 19.2988085,4.76493617 L16.5835745,4.76493617 C16.2315745,4.76493617 15.9452766,5.05123404 15.9452766,5.40323404 L15.9452766,7.60893617 C15.9452766,7.96093617 16.2315745,8.24723404 16.5835745,8.24723404 L19.2988085,8.24723404 L19.2988085,8.24714894 Z M8.71523404,13.0060426 C9.06714894,13.0060426 9.35353191,12.7197447 9.35353191,12.3677447 L9.35353191,10.1620426 C9.35353191,9.81012766 9.06714894,9.52374468 8.71523404,9.52374468 L0.638297872,9.52374468 C0.286382979,9.52374468 0,9.81012766 0,10.1620426 L0,12.3677447 C0,12.7197447 0.286382979,13.0060426 0.638297872,13.0060426 L8.71523404,13.0060426 Z M19.3454468,13.0060426 C19.6973617,13.0060426 19.9837447,12.7197447 19.9837447,12.3677447 L19.9837447,10.1620426 C19.9837447,9.81012766 19.6973617,9.52374468 19.3454468,9.52374468 L11.2685106,9.52374468 C10.9165957,9.52374468 10.6302128,9.81012766 10.6302128,10.1620426 L10.6302128,12.3677447 C10.6302128,12.7197447 10.9165957,13.0060426 11.2685106,13.0060426 L19.3454468,13.0060426 Z M14.0302979,17.7649362 C14.3822128,17.7649362 14.6685957,17.4786383 14.6685957,17.1266383 L14.6685957,14.9209362 C14.6685957,14.5689362 14.3822128,14.2826383 14.0302979,14.2826383 L5.9533617,14.2826383 C5.60144681,14.2826383 5.31506383,14.5689362 5.31506383,14.9209362 L5.31506383,17.1266383 C5.31506383,17.4786383 5.60144681,17.7649362 5.9533617,17.7649362 L14.0302979,17.7649362 Z M3.40017021,17.7649362 C3.75217021,17.7649362 4.03846809,17.4786383 4.03846809,17.1266383 L4.03846809,14.9209362 C4.03846809,14.5689362 3.75217021,14.2826383 3.40017021,14.2826383 L0.68493617,14.2826383 C0.33293617,14.2826383 0.0466382979,14.5689362 0.0466382979,14.9209362 L0.0466382979,17.1266383 C0.0466382979,17.4786383 0.33293617,17.7649362 0.68493617,17.7649362 L3.40017021,17.7649362 Z M19.2988085,17.7649362 C19.6508085,17.7649362 19.9371064,17.4786383 19.9371064,17.1266383 L19.9371064,14.9209362 C19.9371064,14.5689362 19.6508085,14.2826383 19.2988085,14.2826383 L16.5835745,14.2826383 C16.2315745,14.2826383 15.9452766,14.5689362 15.9452766,14.9209362 L15.9452766,17.1266383 C15.9452766,17.4786383 16.2315745,17.7649362 16.5835745,17.7649362 L19.2988085,17.7649362 Z" id="path-1"></path>
    </defs>
    <g id="Symbols" stroke="none" stroke-width="1" fill="none" fill-rule="evenodd">
        <g id="main-menu" transform="translate(-20.000000, -477.000000)">
            <g id="Group-4" transform="translate(0.000000, 8.000000)">
                <g id="Group-3-Copy-9" transform="translate(0.000000, 448.000000)">
                    <g id="icon-/-wall-/-24" transform="translate(18.000000, 18.000000)">
                        <g id="firewall" transform="translate(2.000000, 3.000000)">
                            <g id="Capa_1">
                                <mask id="mask-1" fill="white">
                                    <use xlink:href="#path-1"></use>
                                </mask>
                                <g id="Shape" fill-rule="nonzero"></g>
                                <g id="color-/-white_60" mask="url(#mask-1)" fill="#FFFFFF" fill-opacity="0.6">
                                    <g transform="translate(-2.000000, -3.000000)" id="Rectangle-6-Copy-4">
                                        <rect x="0" y="0" width="24" height="24"></rect>
                                    </g>
                                </g>
                            </g>
                        </g>
                    </g>
                </g>
            </g>
        </g>
    </g>
</svg>